<svg id="Layer_1" data-name="Layer 1" xmlns="http://www.w3.org/2000/svg" viewBox="0 0 248.67 175"><title>UpCloud_logo</title><path d="M15.65,140.14c0-4.45.12-8.92-.06-13.37-.08-2.21.95-2.38,2.67-2.33s2.8-.06,2.76,2.26c-.14,8.3,0,16.61-.07,24.92,0,4,.77,7.67,4.83,9.36,4.48,1.86,9.1,2,13.27-.9,2.7-1.86,3.23-4.86,3.23-7.93q0-12.21,0-24.4c0-3.22,1.1-4,4.29-3.27,1.12.26,1.06,1,1.06,1.76,0,9.27.16,18.54-.08,27.8-.18,6.51-4,10.67-10.37,12.12a24.83,24.83,0,0,1-11.18,0c-6.58-1.48-10.19-5.92-10.36-12.65,0-.17,0-.35,0-.52Z" transform="translate(-0.86 -1)" style="fill:#010101"/><path d="M93.41,145.37a19.54,19.54,0,0,0,1.7,8.69,13.43,13.43,0,0,0,13.71,8.15c5.7-.45,9-3.37,10.7-9.8.78-2.94,3-1.41,4.49-1.46,1.79-.06.9,1.58.73,2.4-1.34,6.26-4.59,11-11.06,12.72-7.59,2-14.68,1-20.27-5.06-7.3-7.87-7.4-22.92-.41-31.08,5.76-6.72,16.86-8.55,24.47-4a14.6,14.6,0,0,1,6.78,9.27c.29,1.13.07,1.62-1.17,1.65-2.12,0-3.65.07-4.79-2.62C115,126.46,102.63,125.93,97,133,94.59,136.17,93.4,140.2,93.41,145.37Z" transform="translate(-0.86 -1)"/><path d="M195.28,162.43c-3.33,4.21-7.47,5-12,4a8.37,8.37,0,0,1-6.84-8.23c-.16-6.81,0-13.63-.09-20.45,0-2,1.24-1.65,2.43-1.7s2.38-.08,2.35,1.82c-.09,5.86,0,11.72,0,17.57,0,4.92,1.89,7.16,6.14,7.45s7.91-2.4,8.2-6.74c.39-5.74.34-11.53.21-17.29-.06-2.39.71-3,3-2.87,1.71.09,2,.77,2,2.24-.05,8.39,0,16.78,0,25.18,0,1.35.39,2.82-1.94,2.77-1.9,0-3.33-.11-2.94-2.57C195.68,163.38,195.51,163.13,195.28,162.43Z" transform="translate(-0.86 -1)" style="fill:#010101"/><path d="M136.05,145.36c0,6.21-.07,12.43,0,18.64,0,1.82-.68,2.2-2.3,2.16s-2.61,0-2.59-2.16q.13-18.76,0-37.54c0-2,1-2,2.45-2s2.49,0,2.44,2C136,132.76,136.05,139.06,136.05,145.36Z" transform="translate(-0.86 -1)" style="fill:#010101"/><path d="M81.44,143a12.23,12.23,0,0,0-15.08-7.22,12.93,12.93,0,0,0-6,4.19c-.08-1.2-.18-1.72-.15-2.23.14-2.3-1.58-1.52-2.73-1.64s-2.17,0-2.16,1.73c0,12.07,0,24.15,0,36.22,0,.69-.07,1.37.85,1.69,2.45.86,4-.16,4-2.74,0-3.16,0-6.32,0-9.92,7.63,7,18.52,4,21.35-3.92A22,22,0,0,0,81.44,143Zm-4.25,13.88c-1.29,3.89-3.94,6-7.61,6.11a8.47,8.47,0,0,1-8.72-5.82,17,17,0,0,1-.13-11.32,8.8,8.8,0,0,1,8.84-6.47c3.85.07,6.57,2.48,7.82,6.89A18.41,18.41,0,0,1,78,150.5,19,19,0,0,1,77.19,156.84Z" transform="translate(-0.86 -1)" style="fill:#010101"/><path d="M233.72,162.92c.07-12,0-23.95.08-35.92,0-1.86-.37-2.61-2.43-2.6s-2.52.66-2.46,2.57c.13,4.12,0,8.25,0,13-4.49-4.77-9.28-5.86-14.58-3.65s-7.5,6.81-8,12.27a26.88,26.88,0,0,0,0,5.23c.54,5.34,2.54,10,7.81,12.11s10.12,1.49,14.82-3c-1,3.62,1.18,3.19,3.07,3.21C234.74,166.16,233.71,164.12,233.72,162.92Zm-6.11-4.33c-1.6,3.25-4.58,4.43-8.07,4.34a7.63,7.63,0,0,1-7.14-4.9,15.91,15.91,0,0,1-1.31-6.91,16.66,16.66,0,0,1,1-6.17c1.24-3.2,3.41-5.32,7-5.56,3.72-.25,6.79,1.14,8.49,4.54A15.82,15.82,0,0,1,227.61,158.59Z" transform="translate(-0.86 -1)"/><path d="M162.31,136.39a14.69,14.69,0,0,0-2.24-.74c-10-2.42-18.26,4.48-18.34,15.25,0,7.92,4.28,14.1,11,15.65,7.77,1.81,14.85-2.08,17.3-9.49C172.8,148.61,169.39,139.43,162.31,136.39Zm2.52,20.79a9.2,9.2,0,0,1-17,.12,15.65,15.65,0,0,1,0-12.48,9.17,9.17,0,0,1,17,.35,15.7,15.7,0,0,1,1.06,5.88A14.73,14.73,0,0,1,164.83,157.18Z" transform="translate(-0.86 -1)"/><g id="Page-1"><g id="About-us"><g id="Introduction-Header"><g id="Group-2"><path id="Shape" d="M230.1,60.78H109.57v9.1H230.31a10.4,10.4,0,0,1,0,20.79H100.47V49.09H91.38V99.77H230.1a19.5,19.5,0,0,0,0-39Z" transform="translate(-0.86 -1)" style="fill:#7b00ff"/><path d="M11.43,51A10.29,10.29,0,0,1,21.74,40.64H140.81a19.82,19.82,0,0,0,0-39.64H91.38V21.79h9.09V10.1h40.09a10.4,10.4,0,0,1,0,20.79h-120a19.82,19.82,0,0,0,0,39.64H82.28v-9.1H21.74A10.41,10.41,0,0,1,11.43,51Z" transform="translate(-0.86 -1)" style="fill:#7b00ff"/></g></g></g></g></svg>
